<?xml version="1.0" encoding="utf-8"?>
<!-- Generator: Adobe Illustrator 16.0.3, SVG Export Plug-In . SVG Version: 6.00 Build 0)  -->
<!DOCTYPE svg PUBLIC "-//W3C//DTD SVG 1.1//EN" "http://www.w3.org/Graphics/SVG/1.1/DTD/svg11.dtd">
<svg version="1.1" id="圖層_1" xmlns="http://www.w3.org/2000/svg" xmlns:xlink="http://www.w3.org/1999/xlink" x="0px" y="0px"
	 width="214.223px" height="158.589px" viewBox="-8.777 0 214.223 158.589" enable-background="new -8.777 0 214.223 158.589"
	 xml:space="preserve">
<g id="圖層_1_1_" display="none">
	<path display="inline" fill="#818285" d="M-40.356,263.348c-43.114-13.627-80.854-26.479-79.778-110.431
		c0.783-61.151,25.17-246.766,34.408-286.335c7.481-32.045,14.788-74.191,23.581-75.83c9.805-1.827,31.582,30.022,42.416,41.331
		c17.005,17.751,6.409,13.935,46.138,14.418c48.656,0.591,53.21-6.001,64.287-20.204c14.875-19.071,24.952-39.454,33.261-39.454
		c9.69,0,15.885,18.464,24.184,50.349C171.517-72.99,183.113,13.567,202.261,81.07c20.457,72.115,30.281,83.416,37.707,88.369
		c14.127,9.426,43.203-0.042,46.289-25.372c3.332-27.333-16.574-50.354-27.492-60.335C237.9,64.66,233.433,43.844,248.411,28.641
		c18.588-18.869,38.584-11.833,54.352,3.264c52.049,49.834,59.99,106.163,49.092,144.657c-14.925,52.716-77.021,76.965-125.596,86
		C187.858,269.705,25.751,284.242-40.356,263.348z"/>
	<path display="inline" fill="#AFD5D1" d="M255.291-138.867c1.137-3.104,4.133-5.161,7.439-5.161c3.308,0,6.305,2.057,7.44,5.161
		l14.572,38.937l38.963,14.593c3.1,1.168,5.166,4.134,5.166,7.452c0,3.317-2.066,6.283-5.166,7.451l-38.963,14.593L270.171-16.91
		c-1.137,3.101-4.133,5.167-7.44,5.167c-3.307,0-6.304-2.066-7.439-5.167l-14.572-38.931l-39.893-14.593
		c-3.101-1.168-4.236-4.134-4.236-7.451c0-3.318,1.137-6.284,4.236-7.452l39.893-14.593L255.291-138.867z"/>
	<g display="inline">
		<g>
			<path fill="#AFD5D1" d="M12.001,16.021C-29.798-8.36-54.782-8.36-54.782-8.36c-6.848,0-12.401,6.367-12.401,14.222l5.534,49.289
				c0,7.854,5.551,14.222,12.399,14.222c0,0,2.901,0.033,8.231-0.801c10.057-1.573,28.764-6.234,53.02-20.044
				c1.463-0.833,2.997-1.608,3.964-2.81c0.606-0.752,0.995-1.669,0.995-2.879v-21.13C16.961,18.568,14.365,17.401,12.001,16.021z"/>
			<path fill="#AFD5D1" d="M57.927,16.021C99.725-8.36,124.709-8.36,124.709-8.36c6.848,0,12.399,6.367,12.399,14.222l-5.532,49.289
				c0,7.854-5.552,14.222-12.399,14.222c0,0-2.903,0.033-8.231-0.801c-10.055-1.573-28.765-6.234-53.019-20.044
				c-1.465-0.833-2.998-1.608-3.966-2.81c-0.606-0.752-0.995-1.669-0.995-2.879v-21.13C52.966,18.568,55.562,17.401,57.927,16.021z"
				/>
			<path fill="#AFD5D1" d="M46.429,43.246c0,2.469-2.001,4.471-4.469,4.471H27.969c-2.469,0-4.471-2.002-4.471-4.471V21.303
				c0-2.469,2.001-4.471,4.471-4.471H41.96c2.467,0,4.469,2.002,4.469,4.471V43.246z"/>
		</g>
	</g>
	<g display="inline">
		<path fill="none" d="M-128.583,323.111c0,0,46.239,25.914,183.865,25.945c131.978,0.033,239.987-12.973,239.987-12.973"/>
		<text transform="matrix(0.9812 0.193 -0.193 0.9812 -95.5149 334.7847)" font-family="'ZenMaruGothic-Black'" font-size="55">B</text>
		<text transform="matrix(0.9812 0.193 -0.193 0.9812 -47.8469 343.2944)" font-family="'ZenMaruGothic-Black'" font-size="55">L</text>
		<text transform="matrix(0.9812 0.193 -0.193 0.9812 -4.1018 347.4507)" font-family="'ZenMaruGothic-Black'" font-size="55">A</text>
		<text transform="matrix(0.9812 0.193 -0.193 0.9812 43.4026 349.1089)" font-family="'ZenMaruGothic-Black'" font-size="55">C</text>
		<text transform="matrix(0.9812 0.193 -0.193 0.9812 91.1697 348.8237)" font-family="'ZenMaruGothic-Black'" font-size="55">K</text>
		<text transform="matrix(0.9812 0.193 -0.193 0.9812 135.5706 347.6343)" font-family="'ZenMaruGothic-Black'" font-size="55">C</text>
		<text transform="matrix(0.9812 0.193 -0.193 0.9812 183.2913 345.3882)" font-family="'ZenMaruGothic-Black'" font-size="55">A</text>
		<text transform="matrix(0.9812 0.193 -0.193 0.9812 230.1438 342.2437)" font-family="'ZenMaruGothic-Black'" font-size="55">T</text>
		<path fill="none" d="M-128.583,323.111c0,0,46.239,25.914,183.865,25.945c131.978,0.033,239.987-12.973,239.987-12.973"/>
		
			<text transform="matrix(0.9812 0.193 -0.193 0.9812 -95.5149 334.7847)" fill="none" stroke="#534750" font-family="'ZenMaruGothic-Black'" font-size="55">B</text>
		
			<text transform="matrix(0.9812 0.193 -0.193 0.9812 -47.8469 343.2944)" fill="none" stroke="#534750" font-family="'ZenMaruGothic-Black'" font-size="55">L</text>
		
			<text transform="matrix(0.9812 0.193 -0.193 0.9812 -4.1018 347.4507)" fill="none" stroke="#534750" font-family="'ZenMaruGothic-Black'" font-size="55">A</text>
		
			<text transform="matrix(0.9812 0.193 -0.193 0.9812 43.4026 349.1089)" fill="none" stroke="#534750" font-family="'ZenMaruGothic-Black'" font-size="55">C</text>
		
			<text transform="matrix(0.9812 0.193 -0.193 0.9812 91.1697 348.8237)" fill="none" stroke="#534750" font-family="'ZenMaruGothic-Black'" font-size="55">K</text>
		
			<text transform="matrix(0.9812 0.193 -0.193 0.9812 135.5706 347.6343)" fill="none" stroke="#534750" font-family="'ZenMaruGothic-Black'" font-size="55">C</text>
		
			<text transform="matrix(0.9812 0.193 -0.193 0.9812 183.2913 345.3882)" fill="none" stroke="#534750" font-family="'ZenMaruGothic-Black'" font-size="55">A</text>
		
			<text transform="matrix(0.9812 0.193 -0.193 0.9812 230.1438 342.2437)" fill="none" stroke="#534750" font-family="'ZenMaruGothic-Black'" font-size="55">T</text>
		<path fill="none" d="M-128.583,323.111c0,0,46.239,25.914,183.865,25.945c131.978,0.033,239.987-12.973,239.987-12.973"/>
		
			<text transform="matrix(0.9812 0.193 -0.193 0.9812 -95.5149 334.7847)" fill="#534750" font-family="'ZenMaruGothic-Black'" font-size="55">B</text>
		
			<text transform="matrix(0.9812 0.193 -0.193 0.9812 -47.8469 343.2944)" fill="#534750" font-family="'ZenMaruGothic-Black'" font-size="55">L</text>
		
			<text transform="matrix(0.9812 0.193 -0.193 0.9812 -4.1018 347.4507)" fill="#534750" font-family="'ZenMaruGothic-Black'" font-size="55">A</text>
		
			<text transform="matrix(0.9812 0.193 -0.193 0.9812 43.4026 349.1089)" fill="#534750" font-family="'ZenMaruGothic-Black'" font-size="55">C</text>
		
			<text transform="matrix(0.9812 0.193 -0.193 0.9812 91.1697 348.8237)" fill="#534750" font-family="'ZenMaruGothic-Black'" font-size="55">K</text>
		
			<text transform="matrix(0.9812 0.193 -0.193 0.9812 135.5706 347.6343)" fill="#534750" font-family="'ZenMaruGothic-Black'" font-size="55">C</text>
		
			<text transform="matrix(0.9812 0.193 -0.193 0.9812 183.2913 345.3882)" fill="#534750" font-family="'ZenMaruGothic-Black'" font-size="55">A</text>
		
			<text transform="matrix(0.9812 0.193 -0.193 0.9812 230.1438 342.2437)" fill="#534750" font-family="'ZenMaruGothic-Black'" font-size="55">T</text>
	</g>
	
		<image display="inline" overflow="visible" enable-background="new    " width="216" height="144" xlink:href="FA2B1D14.jpeg"  transform="matrix(3.4722 0 0 8.1597 -1107.3279 -555.2256)">
	</image>
	
		<image display="inline" overflow="visible" enable-background="new    " width="3378" height="1999" xlink:href="FA2B1D14.jpeg"  transform="matrix(0.24 0 0 0.24 -304.0476 -896.0215)">
	</image>
</g>
<g id="圖層_2">
	<path d="M103.339,150.809c-5.938,0.354-11.802-0.826-17.724-0.812c-2.021,0.008-3.969,0.408-5.942,0.683
		c-0.917,0.127-1.615,0.659-2.292,1.229c-5.933,5.006-12.646,5.168-19.679,3.104c-4.15-1.218-8.178-2.89-12.002-4.813
		c-7.634-3.838-12.204-10.088-12.958-18.813c-0.049-0.557,0.046-1.139-0.081-1.674c-1.442-6.105,0.675-11.668,2.618-17.252
		c0.234-0.672,0.561-1.346,0.984-1.914c3.108-4.152,5.906-8.547,9.534-12.293c1.006-1.039,2.153-1.924,3.446-2.564
		c4.659-2.309,8.819-5.475,13.513-7.736c3.479-1.679,5.958-4.302,7.616-7.939c2.691-5.909,6.649-10.991,12.12-14.581
		c7.139-4.687,14.892-7.331,23.607-5.687c1.974,0.372,3.912,0.95,5.646,1.944c5.559,3.186,10.91,6.63,15.229,11.507
		c1.963,2.215,3.249,4.729,4.351,7.385c1.104,2.668,2.371,5.229,4.015,7.615c1.16,1.684,2.585,3,4.351,4.031
		c4.072,2.377,8.242,4.625,12.117,7.295c6.254,4.311,11.215,9.789,13.326,17.316c1.035,3.688,2.115,7.373,2.653,11.188
		c0.722,5.113-0.854,9.654-3.521,13.875c-1.277,2.023-2.753,3.934-4.256,5.799c-1.946,2.414-4.438,4.15-7.354,5.201
		c-3.539,1.277-7.039,2.617-10.331,4.471c-1.559,0.875-3.28,1.187-5.079,1.211c-4.516,0.062-8.738-0.854-12.482-3.502
		c-1.058-0.748-2.197-1.295-3.459-1.602c-0.543-0.131-1.115-0.254-1.589-0.527c-4.536-2.621-9.517-2.35-14.468-2.262
		C104.614,150.703,103.977,150.768,103.339,150.809z"/>
	<path d="M110.925,33.657c-0.084-2.413,0.259-4.776,0.75-7.132c0.521-2.5,1.023-5.002,1.457-7.522
		c0.912-5.309,3.99-9.367,8.086-12.628c3.704-2.95,7.75-5.287,12.505-6.309c4.864-1.045,9.351-0.355,13.601,2.149
		c1.617,0.953,2.886,2.279,3.878,3.848c1.839,2.907,3.661,5.829,3.984,9.391c0.042,0.465,0.218,0.942,0.432,1.364
		c2.495,4.937,1.791,9.881,0.211,14.897c-2.523,8.01-8.135,13.377-14.91,17.791c-0.334,0.217-0.687,0.455-1.063,0.547
		c-4.236,1.041-8.382,2.506-12.877,2.203c-4.079-0.274-7.591-1.788-10.693-4.332c-3.729-3.059-5.004-7.27-5.352-11.872
		C110.874,35.258,110.925,34.456,110.925,33.657z"/>
	<path d="M57.675,0.032c4.188-0.269,7.842,1.202,11.283,3.412c1.074,0.69,2.2,1.299,3.304,1.943
		c6.366,3.709,9.597,9.473,10.47,16.578c0.297,2.417-0.377,4.918-0.281,7.4c0.049,1.275-0.105,2.559-0.046,3.832
		c0.238,5.071-1.532,9.385-4.834,13.145c-0.532,0.607-1.147,1.095-1.885,1.451c-5.981,2.893-12.139,2.961-18.417,1.173
		c-1.229-0.35-2.449-0.747-3.694-1.028c-3.449-0.779-6.102-2.648-8.057-5.592c-1.192-1.796-2.521-3.5-3.604-5.375
		c-2.624-4.541-2.972-9.561-3.032-14.616c-0.022-1.829,0.212-3.674,0.479-5.49c0.278-1.898,0.738-3.748,2.021-5.309
		c0.491-0.597,0.743-1.404,1.046-2.14c2.334-5.672,7.858-9.37,14.049-9.384C56.875,0.031,57.275,0.032,57.675,0.032z"/>
	<path d="M-3.145,62.387c0-1.277-0.085-2.562,0.016-3.831c0.438-5.572,4.278-9.912,9.599-11.602
		c7.409-2.354,14.33-1.19,21.077,2.208c4.753,2.394,9.219,5.133,12.216,9.744c0.97,1.493,1.827,2.998,2.054,4.797
		c0.161,1.281,0.599,2.497,1.113,3.661c1.924,4.352,1.385,8.824,0.349,13.176c-0.672,2.819-2.754,5.01-4.895,6.976
		c-0.884,0.812-1.776,1.601-2.523,2.548c-1.578,2.006-3.688,2.953-6.209,3.176c-5.214,0.459-10.157-0.703-15.03-2.369
		C7.671,88.498,3.267,83.5,0,77.139C-2.401,72.462-3.752,67.652-3.145,62.387z"/>
	<path d="M180.333,93.582c-4.519,0.336-8.916-0.31-13.223-1.67c-3.003-0.949-5.319-2.887-7.336-5.188
		c-1.794-2.051-1.938-4.665-2.074-7.225c-0.07-1.28,0.102-2.567,0.495-3.786c0.912-2.808,1.859-5.604,2.854-8.383
		c0.664-1.852,1.938-3.234,3.451-4.495c4.043-3.374,8.792-5.348,13.838-6.198c4.587-0.773,9.277-1.115,13.779,1.312
		c2.59,1.396,5.262,2.588,7.69,4.31c5.809,4.115,6.896,11.581,5.637,16.22c-1.266,4.653-3.364,8.783-7.536,11.578
		c-0.938,0.628-1.843,1.271-2.943,1.55c-4.098,1.045-8.176,2.227-12.48,1.982C181.771,93.546,181.051,93.582,180.333,93.582z"/>
</g>
</svg>
